# xmcd
#
# Track frame offsets:
#	150
#	18957
#	34798
#	54093
#	73111
#	98852
#	124682
#	139496
#	153728
#	171461
#	187626
#	202720
#	219821
#	236554
#
# Disc length: 3379 seconds
#
# Revision: 1
# Processed by: cddbd v1.5.2PL0 Copyright (c) Steve Scherf et al.
# Submitted via: audiograbber 1.83.01
#
DISCID=b80d310e
DTITLE=Blue Flame - Still Burning
DYEAR=2015
DGENRE=Rock
TTITLE0=Alright Now
TTITLE1=Can't Get Enough Of Your Love
TTITLE2=Hush
TTITLE3=Sunshine Of Your Love
TTITLE4=White Room
TTITLE5=While My Guitar Gently Weeps
TTITLE6=Same Old Story
TTITLE7=Gimme Gimme Good Lovin
TTITLE8=Vicious
TTITLE9=Paper Plane
TTITLE10=Buddy Joe
TTITLE11=Get It On
TTITLE12=Magic Carpet Ride
TTITLE13=Coz I Luv You
EXTD=
EXTT0=
EXTT1=
EXTT2=
EXTT3=
EXTT4=
EXTT5=
EXTT6=
EXTT7=
EXTT8=
EXTT9=
EXTT10=
EXTT11=
EXTT12=
EXTT13=
PLAYORDER=
